<svg id="visual" viewBox="0 0 960 540" width="960" height="540" xmlns="http://www.w3.org/2000/svg" xmlns:xlink="http://www.w3.org/1999/xlink" version="1.1"><path d="M0 141L14.5 152.8C29 164.7 58 188.3 87.2 197.3C116.3 206.3 145.7 200.7 174.8 189.8C204 179 233 163 262 158.5C291 154 320 161 349 156.5C378 152 407 136 436.2 120.8C465.3 105.7 494.7 91.3 523.8 96.7C553 102 582 127 611 143.2C640 159.3 669 166.7 698 161.3C727 156 756 138 785.2 124.5C814.3 111 843.7 102 872.8 125.3C902 148.7 931 204.3 945.5 232.2L960 260L960 0L945.5 0C931 0 902 0 872.8 0C843.7 0 814.3 0 785.2 0C756 0 727 0 698 0C669 0 640 0 611 0C582 0 553 0 523.8 0C494.7 0 465.3 0 436.2 0C407 0 378 0 349 0C320 0 291 0 262 0C233 0 204 0 174.8 0C145.7 0 116.3 0 87.2 0C58 0 29 0 14.5 0L0 0Z" fill="#89c4c2"></path><path d="M0 222L14.5 242.8C29 263.7 58 305.3 87.2 316.2C116.3 327 145.7 307 174.8 290.7C204 274.3 233 261.7 262 252.7C291 243.7 320 238.3 349 238.3C378 238.3 407 243.7 436.2 228.3C465.3 213 494.7 177 523.8 185.2C553 193.3 582 245.7 611 269.2C640 292.7 669 287.3 698 281C727 274.7 756 267.3 785.2 245.7C814.3 224 843.7 188 872.8 198C902 208 931 264 945.5 292L960 320L960 258L945.5 230.2C931 202.3 902 146.7 872.8 123.3C843.7 100 814.3 109 785.2 122.5C756 136 727 154 698 159.3C669 164.7 640 157.3 611 141.2C582 125 553 100 523.8 94.7C494.7 89.3 465.3 103.7 436.2 118.8C407 134 378 150 349 154.5C320 159 291 152 262 156.5C233 161 204 177 174.8 187.8C145.7 198.7 116.3 204.3 87.2 195.3C58 186.3 29 162.7 14.5 150.8L0 139Z" fill="#57918f"></path><path d="M0 303L14.5 320.2C29 337.3 58 371.7 87.2 379C116.3 386.3 145.7 366.7 174.8 346C204 325.3 233 303.7 262 300C291 296.3 320 310.7 349 317C378 323.3 407 321.7 436.2 306.3C465.3 291 494.7 262 523.8 265.5C553 269 582 305 611 328.5C640 352 669 363 698 355.8C727 348.7 756 323.3 785.2 301.7C814.3 280 843.7 262 872.8 280.8C902 299.7 931 355.3 945.5 383.2L960 411L960 318L945.5 290C931 262 902 206 872.8 196C843.7 186 814.3 222 785.2 243.7C756 265.3 727 272.7 698 279C669 285.3 640 290.7 611 267.2C582 243.7 553 191.3 523.8 183.2C494.7 175 465.3 211 436.2 226.3C407 241.7 378 236.3 349 236.3C320 236.3 291 241.7 262 250.7C233 259.7 204 272.3 174.8 288.7C145.7 305 116.3 325 87.2 314.2C58 303.3 29 261.7 14.5 240.8L0 220Z" fill="#266160"></path><path d="M0 482L14.5 482.8C29 483.7 58 485.3 87.2 488.8C116.3 492.3 145.7 497.7 174.8 495.8C204 494 233 485 262 476C291 467 320 458 349 456.2C378 454.3 407 459.7 436.2 457.8C465.3 456 494.7 447 523.8 444.3C553 441.7 582 445.3 611 448.2C640 451 669 453 698 454C727 455 756 455 785.2 455.8C814.3 456.7 843.7 458.3 872.8 467.3C902 476.3 931 492.7 945.5 500.8L960 509L960 409L945.5 381.2C931 353.3 902 297.7 872.8 278.8C843.7 260 814.3 278 785.2 299.7C756 321.3 727 346.7 698 353.8C669 361 640 350 611 326.5C582 303 553 267 523.8 263.5C494.7 260 465.3 289 436.2 304.3C407 319.7 378 321.3 349 315C320 308.7 291 294.3 262 298C233 301.7 204 323.3 174.8 344C145.7 364.7 116.3 384.3 87.2 377C58 369.7 29 335.3 14.5 318.2L0 301Z" fill="#003535"></path><path d="M0 541L14.5 541C29 541 58 541 87.2 541C116.3 541 145.7 541 174.8 541C204 541 233 541 262 541C291 541 320 541 349 541C378 541 407 541 436.2 541C465.3 541 494.7 541 523.8 541C553 541 582 541 611 541C640 541 669 541 698 541C727 541 756 541 785.2 541C814.3 541 843.7 541 872.8 541C902 541 931 541 945.5 541L960 541L960 507L945.5 498.8C931 490.7 902 474.3 872.8 465.3C843.7 456.3 814.3 454.7 785.2 453.8C756 453 727 453 698 452C669 451 640 449 611 446.2C582 443.3 553 439.7 523.8 442.3C494.7 445 465.3 454 436.2 455.8C407 457.7 378 452.3 349 454.2C320 456 291 465 262 474C233 483 204 492 174.8 493.8C145.7 495.7 116.3 490.3 87.2 486.8C58 483.3 29 481.7 14.5 480.8L0 480Z" fill="#000000"></path></svg>